<svg width="100" height="100" viewBox="0 0 100 100" fill="none" xmlns="http://www.w3.org/2000/svg">
<path d="M7.05911 77.2879C6.99375 75.9454 7.01009 74.5861 7.10813 73.2098C7.20616 71.8338 7.27154 70.3905 7.30422 68.8799L6.17676 10.9303C6.17676 8.68148 6.55258 6.96968 7.30422 5.79491C8.08853 4.58658 9.18328 3.98242 10.5885 3.98242C11.863 3.98242 12.8598 4.01598 13.5787 4.08311C14.2977 4.15024 14.9349 4.21736 15.4905 4.28449C15.8173 4.35164 16.1441 4.3852 16.4709 4.3852C16.7977 4.3852 17.1408 4.3852 17.5003 4.3852H44.5592C47.3042 4.3852 49.2322 4.7712 50.3433 5.54319C51.4873 6.31518 52.059 7.55708 52.059 9.26888C52.059 10.4436 51.8956 11.4002 51.5689 12.1387C51.2747 12.8771 50.8172 13.4645 50.1962 13.9008C49.5756 14.3371 48.7913 14.6392 47.8436 14.8071C46.9285 14.9413 45.85 15.0085 44.6082 15.0085L17.5983 14.9581L17.8925 34.09C21.5199 34.09 24.7552 34.09 27.5983 34.09C30.4742 34.0565 33.0232 34.023 35.2453 33.9895C37.5004 33.9557 39.4611 33.9222 41.1278 33.8887C42.8272 33.8216 44.314 33.7711 45.5885 33.7376C45.9153 33.7376 46.2257 33.7376 46.5199 33.7376C46.814 33.7041 47.0919 33.6873 47.3531 33.6873C47.9088 33.6538 48.4642 33.6368 49.0199 33.6368C49.6082 33.6368 50.082 33.6368 50.4415 33.6368C51.3239 33.6368 52.1082 33.8216 52.7944 34.1908C53.4806 34.5264 54.0526 34.9796 54.5101 35.55C55.0003 36.0873 55.3597 36.6912 55.5886 37.3627C55.8501 38.0005 55.9806 38.6045 55.9806 39.1752C55.9806 40.9541 55.3925 42.2798 54.2159 43.1527C53.0396 43.9917 51.5525 44.4112 49.7553 44.4112L17.8925 44.4617V69.7863C17.8925 70.4575 17.9415 71.1288 18.0395 71.8C18.1702 72.4378 18.3009 73.0923 18.4317 73.7638C18.595 74.4013 18.7421 75.056 18.8728 75.7273C19.0035 76.3985 19.0689 77.0865 19.0689 77.7913C19.0689 78.6641 18.9709 79.4697 18.7748 80.2082C18.5787 80.913 18.2192 81.534 17.6964 82.0709C17.2062 82.5744 16.5362 82.9605 15.6866 83.2289C14.8369 83.531 13.7585 83.682 12.4513 83.682C10.6866 83.682 9.3467 83.1786 8.43165 82.1717C7.51662 81.1311 7.05911 79.5032 7.05911 77.2879Z" fill="#FF4444"/>
<path d="M40.0875 90.8664C39.957 89.9601 39.9721 89.0035 40.1352 87.9966C40.331 86.9559 40.5117 86.0331 40.6748 85.2275C40.7401 81.7032 40.7727 78.1286 40.7727 74.5035C40.8053 70.8448 40.8053 66.8676 40.7727 62.5712C40.7401 58.2748 40.7075 53.5255 40.6748 48.3228C40.6422 43.1203 40.6272 37.1961 40.6272 30.5503L40.0374 23.7535C40.0374 22.3437 40.1026 21.1858 40.2331 20.2795C40.3636 19.3733 40.6271 18.6516 41.0187 18.1146C41.4428 17.5775 42.0151 17.2083 42.7329 17.0069C43.4858 16.8056 44.4496 16.7048 45.6267 16.7048C47.2605 16.7048 48.8769 16.6881 50.4781 16.6545C52.0794 16.5874 53.6982 16.5202 55.3321 16.4531C56.9986 16.386 58.6325 16.3021 60.2337 16.2014C61.8676 16.0671 63.5517 16 65.2834 16C66.4254 16 67.8485 16.0336 69.5476 16.1007C71.2794 16.1678 73.0764 16.4196 74.9387 16.8559C76.8361 17.2587 78.7134 17.8964 80.5782 18.7691C82.4731 19.6418 84.1547 20.8837 85.6254 22.4948C87.1288 24.1059 88.3385 26.1534 89.2546 28.6371C90.2008 31.0875 90.6751 34.1081 90.6751 37.6998C90.6751 40.7877 90.0552 43.6238 88.8129 46.2082C87.5705 48.7927 85.9843 51.0416 84.0568 52.9548C84.875 53.2904 85.658 53.6766 86.411 54.1127C87.1614 54.5491 87.8315 55.0023 88.4188 55.4723C89.0413 55.9087 89.5633 56.3448 89.99 56.7812C90.4468 57.1842 90.7906 57.5198 91.019 57.7881C92.4245 59.5671 93.5664 61.5811 94.4499 63.8299C95.3635 66.045 95.8227 68.2436 95.8227 70.4254C95.8227 74.1846 95.4287 77.4236 94.6457 80.1424C93.8927 82.8276 92.816 85.11 91.4105 86.9895C90.005 88.8357 88.3059 90.3292 86.3131 91.4704C84.3178 92.6116 82.0791 93.5012 79.5969 94.1389C77.1448 94.7431 74.4668 95.1458 71.558 95.3471C68.6817 95.5487 65.6574 95.6492 62.4875 95.6492C61.9329 95.6492 61.1498 95.6157 60.1359 95.5487C59.1219 95.4814 58.0125 95.3809 56.8028 95.2466C55.5931 95.1458 54.3507 95.0115 53.0758 94.8437C51.8033 94.6759 50.6262 94.4913 49.547 94.29C48.7313 94.6591 47.6195 94.8437 46.214 94.8437C44.4496 94.8437 43.029 94.5416 41.9498 93.9376C40.9032 93.2999 40.2833 92.276 40.0875 90.8664ZM51.6075 49.7326C52.8148 49.9004 54.042 50.0514 55.2819 50.1857C56.5242 50.2865 57.6361 50.3368 58.6174 50.3368C62.5051 50.3368 65.7905 50.1857 68.4684 49.8836C71.1489 49.5815 73.3224 48.9943 74.9889 48.1215C76.6554 47.2154 77.8475 45.9734 78.5678 44.3958C79.3183 42.8182 79.6948 40.7542 79.6948 38.2032C79.6948 36.0886 79.4162 34.2927 78.8615 32.8159C78.3068 31.3391 77.4234 30.1476 76.2137 29.2413C75.0366 28.3015 73.5181 27.6302 71.6558 27.2274C69.8262 26.7911 67.6352 26.5729 65.0877 26.5729C64.139 26.5729 62.5879 26.5897 60.4295 26.6233C58.3062 26.6233 55.3647 26.7072 51.6075 26.875V26.9757C51.6075 27.0428 51.6075 27.1099 51.6075 27.1771C51.6402 27.2107 51.6552 27.261 51.6552 27.3281C51.7205 30.7854 51.7381 34.2927 51.7054 37.8508C51.7054 41.4087 51.6728 45.1511 51.6075 49.0781V49.7326ZM51.6075 84.1199C52.3906 84.2542 53.1912 84.3882 54.0094 84.5225C54.8251 84.6568 55.7562 84.7744 56.8028 84.8749C57.882 84.9757 59.1219 85.0597 60.5274 85.1267C61.9329 85.1938 63.5994 85.2275 65.5269 85.2275C67.7506 85.2275 70.0044 85.0932 72.2933 84.8246C74.6124 84.556 76.7056 83.9688 78.5678 83.0625C80.4627 82.1561 81.9988 80.8471 83.1759 79.1355C84.3831 77.3901 84.9879 75.0742 84.9879 72.1876C84.9879 69.8044 84.5311 67.8072 83.6151 66.1961C82.7341 64.585 81.6223 63.2927 80.2821 62.3193C78.9745 61.3125 77.5539 60.6077 76.0179 60.2048C74.4819 59.7686 73.0764 59.5503 71.8014 59.5503C70.6594 59.5503 69.4824 59.5671 68.2726 59.6006C67.0955 59.6343 65.7402 59.6846 64.2042 59.7516C62.6682 59.7854 60.8712 59.8357 58.8132 59.9027C56.7853 59.9364 54.3683 59.97 51.5573 60.0035C51.5573 64.0312 51.5573 67.3543 51.5573 69.9723C51.5573 72.5902 51.5573 74.7888 51.5573 76.5678C51.59 78.3132 51.6075 79.7565 51.6075 80.8976C51.6075 82.0388 51.6075 83.1127 51.6075 84.1199Z" fill="black"/>
</svg>
