<svg width="11" height="12" viewBox="0 0 11 12" fill="none" xmlns="http://www.w3.org/2000/svg">
<path d="M2.926 11.616C2.926 11.49 2.912 11.434 2.856 11.434L2.534 11.588C2.534 11.518 2.492 11.476 2.422 11.448L2.31 11.434C2.212 11.434 2.17 11.448 2.03 11.532C1.988 11.448 1.932 11.35 1.89 11.266C1.526 10.566 1.148 9.516 0.98 9.054C0.896 8.816 0.812 8.326 0.714 7.584C0.826 7.654 0.91 7.682 0.952 7.682C1.008 7.682 1.078 7.584 1.134 7.388C1.162 7.43 1.218 7.444 1.288 7.444C1.33 7.444 1.386 7.43 1.414 7.388L1.638 7.052L1.89 7.136H1.904C1.932 7.136 1.974 7.094 2.044 7.052C2.114 7.01 2.17 6.982 2.212 6.982L2.254 6.996C2.478 7.108 2.632 7.304 2.702 7.612C2.87 8.326 3.024 8.676 3.206 8.676C3.36 8.676 3.57 8.494 3.794 8.144C4.018 7.794 4.242 7.318 4.494 6.744C4.508 6.856 4.522 6.912 4.55 6.912C4.634 6.912 4.844 6.422 5.362 5.596C6.132 4.35 8.036 1.956 8.526 1.62C8.89 1.368 9.17 1.13 9.366 0.92C9.338 1.06 9.31 1.158 9.31 1.2C9.31 1.242 9.338 1.256 9.366 1.256L9.758 1.06V1.116C9.758 1.186 9.772 1.228 9.814 1.228C9.87 1.228 10.094 1.004 10.122 0.92L10.094 1.116L10.57 0.836L10.458 1.088C10.598 0.99 10.71 0.933999 10.78 0.933999C10.85 0.933999 10.892 1.046 10.892 1.116C10.892 1.228 10.794 1.382 10.64 1.578C10.472 1.802 10.052 2.236 8.792 3.678C8.246 4.294 5.824 7.584 5.362 8.368L4.494 9.838C4.116 10.468 3.878 10.874 3.752 11.028C3.626 11.182 3.472 11.336 3.29 11.476L3.164 11.406L3.052 11.476L2.926 11.616Z" fill="black"/>
</svg>
