<svg width="160" height="30" viewBox="0 0 160 30" fill="none" xmlns="http://www.w3.org/2000/svg">
<g clip-path="url(#clip0_4_39)">
<path d="M0.764655 21.822C0.748316 21.4864 0.752401 21.1466 0.776909 20.8025C0.801418 20.4585 0.817763 20.0977 0.825932 19.72L0.544067 5.23263C0.544067 4.67041 0.638023 4.24246 0.825932 3.94877C1.02201 3.64669 1.2957 3.49565 1.64701 3.49565C1.96563 3.49565 2.21482 3.50404 2.39456 3.52082C2.57429 3.5376 2.73361 3.55438 2.8725 3.57116C2.9542 3.58795 3.0359 3.59634 3.1176 3.59634C3.1993 3.59634 3.28508 3.59634 3.37495 3.59634H10.1397C10.8259 3.59634 11.3079 3.69284 11.5857 3.88584C11.8717 4.07884 12.0146 4.38931 12.0146 4.81726C12.0146 5.11095 11.9738 5.3501 11.8921 5.53471C11.8186 5.71932 11.7042 5.86616 11.5489 5.97524C11.3938 6.08433 11.1977 6.15985 10.9608 6.20181C10.732 6.23538 10.4624 6.25216 10.1519 6.25216L3.39946 6.23957L3.47299 11.0225C4.37985 11.0225 5.18867 11.0225 5.89946 11.0225C6.61843 11.0142 7.25567 11.0058 7.81121 10.9974C8.37498 10.989 8.86514 10.9806 9.28183 10.9722C9.70668 10.9555 10.0784 10.9428 10.397 10.9344C10.4787 10.9344 10.5563 10.9344 10.6298 10.9344C10.7034 10.9261 10.7728 10.9219 10.8382 10.9219C10.9771 10.9135 11.1159 10.9092 11.2549 10.9092C11.4019 10.9092 11.5204 10.9092 11.6102 10.9092C11.8309 10.9092 12.0269 10.9555 12.1985 11.0477C12.37 11.1316 12.513 11.2449 12.6274 11.3876C12.7499 11.5219 12.8398 11.6728 12.897 11.8407C12.9624 12.0002 12.995 12.1512 12.995 12.2938C12.995 12.7386 12.848 13.07 12.5539 13.2882C12.2598 13.498 11.888 13.6028 11.4387 13.6028L3.47299 13.6155V19.9466C3.47299 20.1144 3.48525 20.2822 3.50975 20.4501C3.54243 20.6095 3.57511 20.7731 3.60779 20.941C3.64864 21.1004 3.68541 21.2641 3.71809 21.4319C3.75076 21.5997 3.76711 21.7717 3.76711 21.9479C3.76711 22.1661 3.74259 22.3675 3.69358 22.5521C3.64456 22.7283 3.55469 22.8835 3.42397 23.0178C3.30142 23.1436 3.13394 23.2402 2.92152 23.3073C2.7091 23.3828 2.43949 23.4206 2.1127 23.4206C1.67152 23.4206 1.33655 23.2947 1.10779 23.043C0.879033 22.7828 0.764655 22.3758 0.764655 21.822ZM16.8921 21.9353C16.8921 21.6416 16.8962 21.348 16.9044 21.0542C16.9125 20.7605 16.9207 20.4375 16.9289 20.085V10.3806C16.9289 10.1456 16.9044 9.91075 16.8554 9.67578C16.8064 9.43244 16.7818 9.18072 16.7818 8.92056C16.7818 8.47582 16.937 8.13601 17.2475 7.90104C17.558 7.66608 17.9787 7.5486 18.5098 7.5486C18.7385 7.5486 18.9387 7.59055 19.1102 7.67446C19.2818 7.74999 19.4248 7.85065 19.5392 7.97657C19.6535 8.10243 19.7393 8.24505 19.7965 8.40449C19.8537 8.56392 19.8823 8.72754 19.8823 8.89536C19.8823 9.03804 19.8701 9.18491 19.8455 9.3359C19.8292 9.47858 19.8088 9.6212 19.7842 9.76388C21.0342 9.44501 22.0963 9.15552 22.9706 8.89536C23.8529 8.63526 24.5433 8.42131 25.0416 8.25343C25.1478 8.06048 25.2949 7.89686 25.4828 7.76255C25.6789 7.61994 25.9321 7.5486 26.2426 7.5486C26.692 7.5486 27.0474 7.67027 27.3088 7.91361C27.5784 8.14858 27.7132 8.44644 27.7132 8.80726C27.7132 8.94994 27.705 9.09675 27.6887 9.2478C27.6724 9.39886 27.6641 9.54992 27.6641 9.70091C27.6151 10.2128 27.6029 10.7331 27.6274 11.2617C27.6601 11.7903 27.6968 12.3232 27.7377 12.8602C27.7541 13.0281 27.7622 13.2085 27.7622 13.4014C27.7704 13.5861 27.7744 13.7749 27.7744 13.9678C27.7744 14.1692 27.7254 14.3371 27.6274 14.4713C27.5294 14.6056 27.4027 14.7147 27.2475 14.7986C27.1004 14.8741 26.937 14.9286 26.7573 14.9622C26.5776 14.9958 26.4019 15.0126 26.2304 15.0126C25.9853 15.0126 25.781 14.9706 25.6176 14.8867C25.4542 14.7944 25.3194 14.6811 25.2132 14.5469C25.1151 14.4042 25.0416 14.249 24.9926 14.0811C24.9517 13.9049 24.9313 13.7329 24.9313 13.5651C24.9313 13.1791 24.9354 12.7889 24.9436 12.3945C24.9517 11.9917 24.9599 11.5512 24.9681 11.0729C24.6576 11.1484 24.2287 11.2491 23.6813 11.375C23.1421 11.5008 22.5498 11.6351 21.9044 11.7778C21.5367 11.87 21.1732 11.9581 20.8137 12.0421C20.4542 12.1176 20.0906 12.1973 19.723 12.2812V20.5005L20.0906 20.3872C20.254 20.3284 20.4092 20.2781 20.5563 20.2361C20.7034 20.1858 20.8709 20.1522 21.0588 20.1354C21.214 20.1522 21.3652 20.19 21.5122 20.2487C21.6675 20.3074 21.8022 20.3913 21.9166 20.5005C22.0392 20.6095 22.1372 20.748 22.2107 20.9158C22.2842 21.0752 22.321 21.2598 22.321 21.4696C22.321 21.6626 22.2883 21.8472 22.223 22.0234C22.1658 22.1997 22.0841 22.3591 21.9779 22.5017C21.8717 22.636 21.745 22.7492 21.598 22.8416C21.4591 22.9255 21.3039 22.9716 21.1323 22.98C21.0179 22.9968 20.8627 23.022 20.6666 23.0555C20.4705 23.0975 20.2418 23.1436 19.9804 23.194C19.5637 23.2779 19.2246 23.3366 18.9632 23.3702C18.7099 23.4038 18.4975 23.4206 18.3259 23.4206C18.1381 23.4206 17.9542 23.387 17.7744 23.3199C17.6029 23.2611 17.4517 23.1688 17.321 23.043C17.1903 22.9171 17.0841 22.7619 17.0024 22.5772C16.9289 22.3927 16.8921 22.1786 16.8921 21.9353ZM33.9877 17.3789C34.1429 18.0083 34.3717 18.5369 34.674 18.9648C34.9844 19.3844 35.3317 19.7242 35.7157 19.9844C36.0997 20.2445 36.504 20.4333 36.9289 20.5508C37.3619 20.6599 37.7826 20.7144 38.1911 20.7144C38.8284 20.7144 39.3962 20.6599 39.8945 20.5508C40.3929 20.4333 40.8178 20.2948 41.1691 20.1354C41.5285 19.9676 41.8186 19.7956 42.0392 19.6194C42.2598 19.4431 42.415 19.2879 42.5049 19.1536C42.5866 19.0278 42.6764 18.9103 42.7745 18.8012C42.8806 18.6837 42.9909 18.583 43.1053 18.4991C43.2279 18.4068 43.3463 18.3355 43.4607 18.2852C43.5833 18.2348 43.6976 18.2096 43.8039 18.2096C44.2123 18.2096 44.5269 18.3355 44.7475 18.5872C44.9763 18.8306 45.0906 19.162 45.0906 19.5816C45.0906 19.741 45.0334 19.9424 44.919 20.1858C44.8047 20.4291 44.5923 20.6976 44.2818 20.9913C43.9387 21.3186 43.5547 21.6291 43.1299 21.9227C42.7132 22.2164 42.2516 22.4766 41.745 22.7031C41.2385 22.9213 40.6871 23.0933 40.0906 23.2192C39.5024 23.3534 38.8651 23.4206 38.1789 23.4206C37.3701 23.4206 36.6307 23.3073 35.9607 23.0807C35.2908 22.8625 34.6903 22.5647 34.1593 22.187C33.6282 21.8011 33.1666 21.3563 32.7745 20.8528C32.3823 20.3494 32.0555 19.8123 31.7941 19.2417C31.5326 18.6711 31.3365 18.0838 31.2059 17.4796C31.0751 16.8755 31.0098 16.288 31.0098 15.7174C31.0098 14.4755 31.2059 13.3553 31.598 12.3567C31.9902 11.3498 32.5294 10.4897 33.2156 9.77644C33.9019 9.06324 34.7148 8.51359 35.6544 8.12757C36.5939 7.74161 37.6111 7.5486 38.7058 7.5486C39.4901 7.5486 40.2255 7.67027 40.9117 7.91361C41.598 8.14858 42.2066 8.4842 42.7377 8.92056C43.2769 9.34853 43.7263 9.86454 44.0857 10.4688C44.4534 11.0645 44.7107 11.7232 44.8578 12.4449C45.0212 12.5875 45.1397 12.7763 45.2132 13.0113C45.2949 13.2378 45.3357 13.4644 45.3357 13.691C45.3357 14.0686 45.2091 14.3791 44.9558 14.6224C44.7107 14.8573 44.4003 15.021 44.0245 15.1133C43.1993 15.3314 42.3742 15.5328 41.549 15.7174C40.7238 15.902 39.8945 16.0825 39.0612 16.2587C38.2279 16.4349 37.3864 16.6153 36.5367 16.7999C35.6952 16.9845 34.8456 17.1775 33.9877 17.3789ZM33.7793 15.0503C35.1683 14.7147 36.5735 14.4 37.9951 14.1063C39.4166 13.8127 40.8627 13.4853 42.3333 13.1245C42.1944 12.7386 42.0065 12.3736 41.7696 12.0295C41.5326 11.6771 41.2549 11.3708 40.9362 11.1106C40.6176 10.8505 40.2622 10.645 39.8701 10.4939C39.4861 10.3428 39.0694 10.2673 38.6201 10.2673C37.9256 10.2673 37.2924 10.3848 36.7205 10.6198C36.1568 10.8463 35.6666 11.1694 35.25 11.5889C34.8333 12.0002 34.4983 12.5036 34.245 13.0994C33.9918 13.6867 33.8366 14.3371 33.7793 15.0503ZM48.2891 19.7956C48.2891 19.6025 48.3341 19.4264 48.424 19.2669C48.5138 19.1075 48.6241 18.9732 48.7548 18.8641C48.8938 18.7467 49.0449 18.6586 49.2083 18.5998C49.3717 18.5327 49.531 18.4991 49.6862 18.4991C49.8741 18.4991 50.0335 18.5201 50.1642 18.562C50.2949 18.604 50.4092 18.6628 50.5073 18.7383C50.6053 18.8138 50.6912 18.9019 50.7646 19.0026C50.8382 19.1033 50.9158 19.2124 50.9975 19.3299C51.3243 19.8333 51.8022 20.2235 52.4313 20.5005C53.0604 20.7689 53.8815 20.9032 54.8946 20.9032C55.3112 20.9032 55.7034 20.8655 56.071 20.7899C56.4468 20.7144 56.7737 20.6011 57.0514 20.4501C57.3374 20.2991 57.5621 20.1144 57.7254 19.8963C57.897 19.6781 57.9828 19.4264 57.9828 19.1411C57.9828 18.755 57.8725 18.4278 57.6519 18.1592C57.4395 17.8908 57.1535 17.66 56.7941 17.467C56.4427 17.274 56.0424 17.1103 55.5931 16.9761C55.1437 16.8419 54.6821 16.7118 54.2083 16.5859C53.7753 16.4769 53.3382 16.3594 52.897 16.2335C52.4559 16.0992 52.0269 15.9482 51.6102 15.7803C51.1936 15.6042 50.8014 15.3986 50.4338 15.1636C50.0743 14.9203 49.7598 14.635 49.4901 14.3077C49.2205 13.9805 49.0041 13.6028 48.8406 13.1749C48.6854 12.7386 48.6078 12.2393 48.6078 11.6771C48.6078 10.9219 48.7794 10.2841 49.1225 9.76388C49.4738 9.23524 49.9232 8.80726 50.4705 8.48001C51.0261 8.15277 51.6429 7.9178 52.321 7.77518C52.9991 7.62413 53.665 7.5486 54.3186 7.5486C54.6944 7.5486 55.0375 7.56961 55.348 7.61156C55.6584 7.65351 55.9485 7.70803 56.2181 7.77518C56.4877 7.84227 56.7451 7.92618 56.9901 8.02691C57.2353 8.11919 57.4804 8.21573 57.7254 8.31639C57.7581 8.19053 57.8071 8.06467 57.8725 7.93881C57.9461 7.80451 58.0318 7.68703 58.1298 7.58636C58.2279 7.47726 58.3423 7.38916 58.473 7.32201C58.6037 7.25493 58.7508 7.22135 58.9142 7.22135C59.3145 7.22135 59.6249 7.30107 59.8455 7.4605C60.0661 7.61994 60.1764 7.90104 60.1764 8.30382C60.1764 8.62269 60.1642 8.95413 60.1397 9.29814C60.1152 9.64221 60.1029 10.0198 60.1029 10.431C60.1438 10.5317 60.1723 10.645 60.1887 10.7708C60.205 10.8883 60.2132 10.9932 60.2132 11.0855C60.2132 11.2869 60.1805 11.4589 60.1152 11.6016C60.0498 11.7358 59.9599 11.8491 59.8455 11.9414C59.7312 12.0253 59.5964 12.0883 59.4411 12.1302C59.2941 12.1722 59.1307 12.1931 58.9509 12.1931C58.7875 12.1931 58.6282 12.1638 58.473 12.105C58.3259 12.0463 58.1911 11.9708 58.0686 11.8784C57.9461 11.7778 57.8398 11.6645 57.75 11.5386C57.6601 11.4128 57.5907 11.2827 57.5416 11.1484C57.4109 11.0394 57.2434 10.9177 57.0391 10.7834C56.8431 10.6408 56.6061 10.5107 56.3284 10.3932C56.0588 10.2758 55.7483 10.1792 55.397 10.1037C55.0457 10.0198 54.6576 9.97783 54.2328 9.97783C53.8161 9.97783 53.428 10.0198 53.0686 10.1037C52.7173 10.1792 52.4109 10.2925 52.1495 10.4436C51.8962 10.5946 51.696 10.775 51.5489 10.9848C51.4019 11.1946 51.3284 11.4295 51.3284 11.6897C51.3284 12.0253 51.4264 12.3148 51.6225 12.5581C51.8268 12.7931 52.0963 13.0029 52.4313 13.1875C52.7663 13.3637 53.1543 13.5231 53.5956 13.6658C54.0449 13.8084 54.5106 13.9469 54.9926 14.0811C55.6544 14.2658 56.3202 14.4713 56.9901 14.6979C57.6683 14.9245 58.2769 15.2181 58.8161 15.579C59.3635 15.9314 59.8088 16.3803 60.1519 16.9258C60.4951 17.4628 60.6666 18.1383 60.6666 18.9522C60.6666 19.5816 60.5727 20.127 60.3848 20.5885C60.1968 21.05 59.9477 21.4486 59.6372 21.7842C59.3268 22.1116 58.9632 22.3842 58.5465 22.6024C58.1381 22.8122 57.7091 22.9758 57.2597 23.0933C56.8186 23.2192 56.3692 23.3031 55.9117 23.345C55.4542 23.3954 55.0212 23.4206 54.6127 23.4206C54.0408 23.4206 53.4893 23.366 52.9583 23.2569C52.4272 23.1478 51.9248 23.001 51.4509 22.8164C50.9852 22.6318 50.5563 22.4178 50.1642 22.1745C49.7802 21.9311 49.4493 21.6752 49.1715 21.4067C48.8938 21.1381 48.6772 20.8655 48.522 20.5885C48.3668 20.3116 48.2891 20.0473 48.2891 19.7956ZM64.6249 22.1493C64.6249 21.9983 64.6293 21.843 64.6374 21.6836C64.6538 21.5242 64.6701 21.3647 64.6864 21.2053C64.7109 20.9871 64.7353 20.7438 64.7598 20.4753C64.7843 20.2067 64.7968 19.9088 64.7968 19.5816C64.7968 19.0865 64.7924 18.4488 64.7843 17.6684C64.7843 16.888 64.7799 16.0237 64.7717 15.0755C64.7636 14.1189 64.7554 13.1161 64.7472 12.0672C64.7391 11.01 64.7272 9.96108 64.7109 8.92056C64.7027 7.87166 64.6901 6.86471 64.6738 5.89973C64.6657 4.93474 64.6575 4.06625 64.6494 3.29426C64.527 3.27748 64.3965 3.28587 64.2572 3.31943C64.1185 3.3446 63.9548 3.35719 63.7672 3.35719C63.6203 3.35719 63.4691 3.33202 63.3135 3.28167C63.1667 3.23132 63.028 3.1558 62.8969 3.05511C62.7745 2.94602 62.6723 2.80337 62.5906 2.62716C62.5171 2.45094 62.4803 2.23696 62.4803 1.98523C62.4803 1.54049 62.5947 1.20485 62.8235 0.978286C63.0525 0.743332 63.3261 0.625854 63.6448 0.625854C63.7753 0.625854 63.9021 0.642637 64.0244 0.676202C64.1468 0.709767 64.2779 0.726549 64.4166 0.726549C64.5797 0.726549 64.7472 0.722354 64.9192 0.713962C65.0905 0.705571 65.258 0.692984 65.4218 0.676202C65.6012 0.65942 65.7769 0.646833 65.9482 0.638442C66.1283 0.63005 66.2832 0.625854 66.4144 0.625854C66.7576 0.625854 67.0349 0.743332 67.2476 0.978286C67.4679 1.20485 67.5783 1.51952 67.5783 1.9223C67.5783 3.00476 67.5664 4.10821 67.5419 5.23263C67.525 6.34866 67.5087 7.55279 67.4923 8.84503L67.4679 9.48696C67.754 9.22686 68.0683 8.97933 68.4116 8.74437C68.7548 8.5094 69.1187 8.30382 69.5027 8.12757C69.8949 7.95138 70.2989 7.81295 70.7156 7.71222C71.1322 7.60312 71.557 7.5486 71.9899 7.5486C73.0196 7.5486 73.9344 7.70385 74.735 8.01434C75.5438 8.32477 76.2265 8.79889 76.7818 9.43663C77.3377 10.0744 77.7581 10.8757 78.0442 11.8407C78.3385 12.8057 78.4853 13.9469 78.4853 15.2643C78.4853 15.6503 78.4564 16.0531 78.3993 16.4727C78.3504 16.8922 78.277 17.3117 78.1791 17.7313C78.0806 18.1509 77.9626 18.5663 77.8233 18.9774C77.6847 19.3802 77.5291 19.7578 77.3578 20.1102C77.5378 20.0431 77.7173 19.9844 77.8967 19.934C78.0768 19.8753 78.2726 19.8459 78.4853 19.8459C78.7551 19.8459 78.9753 19.9005 79.1472 20.0095C79.3185 20.1102 79.4491 20.2319 79.5394 20.3745C79.6373 20.5172 79.7025 20.6641 79.7352 20.8151C79.7678 20.9661 79.7841 21.0836 79.7841 21.1675C79.7841 21.4864 79.6906 21.7591 79.5024 21.9856C79.3229 22.2122 79.0895 22.3758 78.804 22.4766C78.5669 22.5689 78.2688 22.6695 77.9093 22.7786C77.5498 22.8877 77.1865 22.9884 76.8188 23.0807C76.4592 23.173 76.1198 23.2527 75.8017 23.3199C75.4829 23.387 75.242 23.4206 75.0782 23.4206C74.5474 23.4206 74.1672 23.2905 73.9388 23.0303C73.7179 22.7619 73.6075 22.4178 73.6075 21.9983C73.6075 21.7717 73.669 21.5241 73.7913 21.2556C73.9143 20.9871 74.0611 20.7395 74.233 20.513C74.4451 20.2025 74.6415 19.8459 74.821 19.4431C75.0011 19.032 75.156 18.5998 75.2865 18.1467C75.4258 17.6852 75.5319 17.2111 75.6053 16.7244C75.6869 16.2293 75.7276 15.7426 75.7276 15.2643C75.7276 14.4755 75.6542 13.7706 75.5074 13.1497C75.3681 12.5288 75.1435 12.0044 74.8335 11.5764C74.5229 11.1484 74.1182 10.8253 73.62 10.6072C73.13 10.3806 72.5333 10.2673 71.8305 10.2673C71.4221 10.2673 71.0136 10.3428 70.6051 10.4939C70.1967 10.645 69.8007 10.8463 69.4167 11.0981C69.0327 11.3414 68.6688 11.6267 68.3262 11.954C67.9912 12.2728 67.6925 12.6001 67.4315 12.9358C67.4152 14.1861 67.4026 15.4322 67.3945 16.6741C67.3945 17.9075 67.4026 19.1704 67.4189 20.4627C67.4352 20.4627 67.4559 20.4585 67.4804 20.4501C67.513 20.4417 67.5827 20.4165 67.6887 20.3745C67.7621 20.341 67.84 20.3116 67.9215 20.2864C68.0112 20.2613 68.1091 20.2445 68.2158 20.2361C68.6569 20.2193 68.992 20.3284 69.2203 20.5633C69.4575 20.7899 69.5761 21.1172 69.5761 21.5451C69.5761 21.6962 69.5472 21.8472 69.4902 21.9983C69.4412 22.1409 69.3716 22.271 69.2818 22.3884C69.1921 22.5059 69.0854 22.6066 68.9631 22.6905C68.8407 22.7744 68.7058 22.8331 68.559 22.8667C68.3952 22.9003 68.2321 22.9381 68.0683 22.98C67.9134 23.0136 67.754 23.0472 67.5909 23.0807C67.4434 23.1143 67.284 23.152 67.1127 23.194C66.9496 23.2359 66.7858 23.2737 66.6227 23.3073C66.4671 23.3408 66.324 23.366 66.1935 23.3828C66.063 23.408 65.9563 23.4206 65.8748 23.4206C65.3929 23.4206 65.0622 23.3115 64.8821 23.0933C64.7109 22.8752 64.6249 22.5605 64.6249 22.1493ZM83.7302 25.8498C83.7302 25.7156 83.7546 25.5645 83.8036 25.3967C83.8613 25.2289 83.9466 25.0694 84.0614 24.9184C84.1838 24.7758 84.3388 24.6541 84.527 24.5534C84.7146 24.4527 84.9436 24.4023 85.2134 24.4023C85.3358 24.4023 85.4544 24.4275 85.5686 24.4778C85.6828 24.5366 85.7894 24.6079 85.8873 24.6919C85.9852 24.7841 86.0749 24.8806 86.1565 24.9813C86.2468 25.082 86.3284 25.1743 86.4018 25.2583C86.6472 25.5687 86.9 25.8163 87.1617 26.0008C87.4233 26.1855 87.6925 26.3239 87.9705 26.4162C88.2566 26.5169 88.5546 26.5799 88.8652 26.605C89.1758 26.6386 89.5027 26.6553 89.8453 26.6553C90.4746 26.6553 91.0544 26.5799 91.5858 26.4288C92.1248 26.2861 92.5904 26.0344 92.9825 25.6736C93.3747 25.3212 93.6853 24.8428 93.9143 24.2387C94.1508 23.643 94.282 22.8961 94.3065 21.9983C94.3065 21.9814 94.3021 21.9647 94.2939 21.9479C94.2939 21.9311 94.2939 21.9144 94.2939 21.8975C94.0737 22.1157 93.8202 22.3171 93.5341 22.5017C93.2567 22.6863 92.9417 22.8458 92.5904 22.98C92.2478 23.1143 91.8676 23.2192 91.4509 23.2947C91.0343 23.3786 90.5769 23.4206 90.0781 23.4206C89.1061 23.4206 88.1788 23.2863 87.2966 23.0178C86.4144 22.7492 85.6382 22.3087 84.9681 21.6961C84.298 21.0836 83.7628 20.2906 83.3625 19.3172C82.9703 18.3355 82.7745 17.1314 82.7745 15.7049C82.7745 15.4195 82.799 15.0965 82.848 14.7356C82.8969 14.3664 82.9703 13.9805 83.0688 13.5777C83.1667 13.1749 83.2891 12.768 83.4365 12.3567C83.5915 11.9456 83.7753 11.5512 83.9874 11.1736C83.9466 11.182 83.9058 11.1862 83.8651 11.1862C83.8324 11.1862 83.7954 11.1862 83.7546 11.1862C83.567 11.1862 83.3913 11.1484 83.2282 11.0729C83.0726 10.9974 82.9339 10.9009 82.8109 10.7834C82.6967 10.6659 82.607 10.5359 82.5418 10.3932C82.4765 10.2506 82.4439 10.1121 82.4439 9.97783C82.4439 9.75969 82.4765 9.56668 82.5418 9.39886C82.607 9.22267 82.7174 9.06743 82.8724 8.93312C83.0362 8.79051 83.2483 8.66884 83.5099 8.56811C83.7709 8.45907 84.0978 8.36253 84.49 8.27863C84.8006 8.21147 85.0905 8.1402 85.3603 8.06467C85.6382 7.98076 85.8792 7.90523 86.0831 7.83808C86.3529 7.75418 86.5901 7.68703 86.794 7.63669C87.0067 7.57798 87.2188 7.5486 87.4315 7.5486C87.7747 7.5486 88.0646 7.66608 88.3011 7.90104C88.5465 8.12757 88.6688 8.43387 88.6688 8.81989C88.6688 9.01284 88.6324 9.21842 88.559 9.43663C88.4931 9.64639 88.3463 9.83522 88.1179 10.003C87.8889 10.0953 87.6643 10.2506 87.4434 10.4688C87.2232 10.6869 87.0149 10.947 86.8185 11.2491C86.6227 11.5512 86.4426 11.8827 86.2795 12.2435C86.1157 12.6043 85.9733 12.9777 85.8503 13.3637C85.7361 13.7413 85.6464 14.1231 85.5811 14.5091C85.5153 14.8951 85.4826 15.2601 85.4826 15.6042C85.4826 16.5608 85.6056 17.3705 85.8503 18.0334C86.1038 18.688 86.4389 19.2208 86.8555 19.6319C87.2721 20.0347 87.754 20.3242 88.3011 20.5005C88.8489 20.6766 89.4249 20.7647 90.0291 20.7647C91.0914 20.7647 91.9617 20.5969 92.64 20.2613C93.3258 19.9172 93.8691 19.397 94.2694 18.7005V18.411V10.7583C94.1471 10.8002 94.0166 10.8422 93.8773 10.8841C93.7386 10.9261 93.5993 10.9638 93.4607 10.9974C93.3302 11.0309 93.2072 11.0603 93.093 11.0855C92.9788 11.1023 92.8847 11.1106 92.8112 11.1106C92.64 11.1106 92.468 11.0897 92.2967 11.0477C92.133 11.0058 91.9818 10.9386 91.8431 10.8463C91.7126 10.7456 91.6021 10.6156 91.5124 10.4561C91.4302 10.2967 91.3894 10.0953 91.3894 9.85197C91.3894 9.44919 91.4917 9.12613 91.6963 8.88279C91.9002 8.63107 92.2309 8.46745 92.6889 8.39192L94.5882 7.83808L94.5756 7.85065C94.7476 7.75837 94.9433 7.68703 95.1642 7.63669C95.385 7.57798 95.5564 7.5486 95.6787 7.5486C95.7691 7.5486 95.887 7.55698 96.0345 7.5738C96.1894 7.59055 96.3363 7.64507 96.4756 7.73742C96.6224 7.82133 96.7491 7.96394 96.8552 8.16533C96.9618 8.36672 97.0145 8.64783 97.0145 9.00865C97.0145 9.10938 97.0108 9.21004 97.0026 9.31077C96.9945 9.41143 96.9819 9.49953 96.9656 9.57505C96.9656 9.57505 96.9656 9.59187 96.9656 9.62545C96.9656 9.65896 96.9618 9.77225 96.9537 9.96527C96.9537 10.1583 96.9537 10.4603 96.9537 10.8715C96.9537 11.2827 96.9493 11.8659 96.9411 12.6211C96.9411 13.3763 96.9367 14.3371 96.9286 15.5034C96.9204 16.6614 96.9123 18.088 96.9041 19.783C96.9041 20.1522 96.9167 20.5256 96.9411 20.9032C96.9656 21.2724 96.9781 21.6878 96.9781 22.1493C96.9781 23.5506 96.7981 24.7128 96.4385 25.6358C96.0872 26.5672 95.589 27.3057 94.9433 27.8511C94.3065 28.3966 93.5422 28.7783 92.6519 28.9965C91.7615 29.2231 90.7852 29.3364 89.7229 29.3364C88.9549 29.3364 88.2114 29.2483 87.4923 29.072C86.7739 28.9042 86.132 28.665 85.5686 28.3546C85.0133 28.0441 84.5678 27.6749 84.2327 27.2469C83.8977 26.819 83.7302 26.3533 83.7302 25.8498Z" fill="#FF4444"/>
<path d="M110.936 22.1116C110.904 21.885 110.908 21.6459 110.948 21.3942C110.997 21.134 111.042 20.9033 111.083 20.7019C111.1 19.8208 111.108 18.9272 111.108 18.0209C111.116 17.1062 111.116 16.1119 111.108 15.0378C111.1 13.9637 111.091 12.7764 111.083 11.4757C111.075 10.1751 111.071 8.69404 111.071 7.03259L110.924 5.33339C110.924 4.98095 110.94 4.69146 110.973 4.46489C111.005 4.23833 111.071 4.05792 111.169 3.92366C111.275 3.78941 111.418 3.6971 111.598 3.64675C111.786 3.59641 112.027 3.57123 112.321 3.57123C112.73 3.57123 113.134 3.56703 113.534 3.55864C113.934 3.54186 114.339 3.52508 114.748 3.5083C115.164 3.49152 115.573 3.47054 115.973 3.44536C116.381 3.4118 116.802 3.39502 117.235 3.39502C117.521 3.39502 117.877 3.40341 118.301 3.42019C118.734 3.43697 119.184 3.49991 119.649 3.60899C120.124 3.70969 120.593 3.86912 121.059 4.08729C121.533 4.30546 121.953 4.61594 122.321 5.01872C122.697 5.42149 122.999 5.93336 123.228 6.55431C123.465 7.1669 123.583 7.92206 123.583 8.81996C123.583 9.59194 123.428 10.301 123.118 10.9471C122.807 11.5932 122.411 12.1554 121.929 12.6337C122.133 12.7176 122.329 12.8142 122.517 12.9232C122.705 13.0323 122.872 13.1456 123.019 13.2631C123.175 13.3722 123.305 13.4812 123.412 13.5903C123.526 13.6911 123.612 13.775 123.669 13.8421C124.021 14.2868 124.306 14.7903 124.527 15.3525C124.755 15.9063 124.87 16.4559 124.87 17.0014C124.87 17.9412 124.772 18.7509 124.576 19.4306C124.388 20.1019 124.119 20.6725 123.767 21.1424C123.416 21.6039 122.991 21.9773 122.493 22.2626C121.994 22.5479 121.434 22.7703 120.814 22.9297C120.201 23.0808 119.531 23.1815 118.804 23.2318C118.085 23.2822 117.329 23.3073 116.536 23.3073C116.398 23.3073 116.202 23.299 115.949 23.2822C115.695 23.2654 115.418 23.2402 115.115 23.2067C114.813 23.1815 114.502 23.1479 114.183 23.1059C113.865 23.064 113.571 23.0178 113.301 22.9675C113.097 23.0598 112.819 23.1059 112.468 23.1059C112.027 23.1059 111.672 23.0304 111.402 22.8794C111.14 22.72 110.985 22.464 110.936 22.1116ZM113.816 11.8282C114.118 11.8701 114.425 11.9079 114.735 11.9415C115.046 11.9667 115.324 11.9792 115.569 11.9792C116.541 11.9792 117.362 11.9415 118.032 11.8659C118.702 11.7904 119.245 11.6436 119.662 11.4254C120.078 11.1989 120.376 10.8884 120.557 10.494C120.744 10.0996 120.838 9.58356 120.838 8.94582C120.838 8.41718 120.769 7.9682 120.63 7.599C120.491 7.22979 120.27 6.93191 119.968 6.70535C119.674 6.47039 119.294 6.30257 118.829 6.20188C118.371 6.09279 117.823 6.03825 117.186 6.03825C116.949 6.03825 116.562 6.04244 116.022 6.05083C115.491 6.05083 114.756 6.07181 113.816 6.11377V6.13894C113.816 6.15572 113.816 6.1725 113.816 6.18929C113.825 6.19768 113.828 6.21027 113.828 6.22705C113.845 7.09137 113.849 7.9682 113.841 8.85772C113.841 9.74719 113.833 10.6828 113.816 11.6645V11.8282ZM113.816 20.425C114.012 20.4586 114.212 20.4921 114.417 20.5256C114.621 20.5592 114.854 20.5886 115.115 20.6137C115.385 20.6389 115.695 20.66 116.046 20.6767C116.398 20.6935 116.814 20.7019 117.296 20.7019C117.852 20.7019 118.416 20.6683 118.988 20.6012C119.568 20.534 120.091 20.3872 120.557 20.1606C121.03 19.934 121.414 19.6068 121.709 19.1789C122.01 18.7425 122.162 18.1636 122.162 17.4419C122.162 16.8461 122.047 16.3468 121.818 15.944C121.598 15.5413 121.32 15.2182 120.985 14.9749C120.658 14.7231 120.303 14.5469 119.919 14.4462C119.535 14.3372 119.184 14.2826 118.865 14.2826C118.579 14.2826 118.285 14.2868 117.983 14.2952C117.688 14.3036 117.35 14.3162 116.966 14.3329C116.582 14.3414 116.132 14.3539 115.618 14.3707C115.111 14.3791 114.507 14.3875 113.804 14.3959C113.804 15.4028 113.804 16.2336 113.804 16.8881C113.804 17.5426 113.804 18.0922 113.804 18.537C113.812 18.9733 113.816 19.3341 113.816 19.6194C113.816 19.9047 113.816 20.1732 113.816 20.425ZM127.97 15.5035C127.97 14.3623 128.159 13.3008 128.535 12.319C128.91 11.3373 129.425 10.4856 130.078 9.76394C130.74 9.04229 131.512 8.47589 132.395 8.06474C133.285 7.65358 134.245 7.44794 135.275 7.44794C135.797 7.44794 136.295 7.5109 136.77 7.63676C137.252 7.76262 137.697 7.93043 138.105 8.14026C138.522 8.34165 138.894 8.57236 139.221 8.83253C139.556 9.09262 139.841 9.36116 140.078 9.63808C140.07 9.5206 140.066 9.39474 140.066 9.2605C140.066 9.1262 140.066 9.00872 140.066 8.90806C140.066 8.69829 140.095 8.50528 140.152 8.32902C140.209 8.14445 140.299 7.98502 140.422 7.85072C140.544 7.71648 140.7 7.61163 140.887 7.5361C141.075 7.45219 141.304 7.41024 141.574 7.41024C141.802 7.41024 142.007 7.45638 142.186 7.54866C142.374 7.63257 142.534 7.74168 142.664 7.87591C142.795 8.00177 142.897 8.14026 142.97 8.29126C143.044 8.43394 143.081 8.56399 143.081 8.68147C143.081 8.96676 143.064 9.25625 143.032 9.54999C143.007 9.83528 142.987 10.1248 142.97 10.4184C142.97 11.3415 142.962 12.1596 142.946 12.8729C142.938 13.5778 142.926 14.2281 142.909 14.8239C142.893 15.2266 142.881 15.6462 142.872 16.0825C142.864 16.5105 142.861 16.9048 142.861 17.2657C142.861 18.0796 142.861 18.7257 142.861 19.204C142.861 19.6823 142.881 20.0306 142.921 20.2487C142.995 20.232 143.101 20.1942 143.24 20.1355C143.387 20.0767 143.522 20.0138 143.645 19.9467C143.759 19.9047 143.873 19.8628 143.987 19.8208C144.102 19.7789 144.245 19.7579 144.417 19.7579C144.613 19.7579 144.784 19.804 144.931 19.8963C145.079 19.9803 145.201 20.0935 145.299 20.2362C145.405 20.3704 145.483 20.5257 145.532 20.7019C145.581 20.8697 145.606 21.0333 145.606 21.1928C145.606 21.4193 145.552 21.6501 145.446 21.885C145.34 22.1116 145.144 22.2753 144.858 22.3759C144.613 22.4682 144.363 22.5647 144.11 22.6654C143.857 22.7661 143.6 22.8584 143.338 22.9423C143.085 23.0262 142.828 23.0976 142.566 23.1563C142.313 23.215 142.052 23.2444 141.782 23.2444C141.463 23.2444 141.202 23.1773 140.998 23.043C140.793 22.9087 140.634 22.7367 140.519 22.527C140.405 22.3088 140.324 22.0697 140.274 21.8095C140.225 21.5494 140.197 21.2934 140.189 21.0417C139.935 21.369 139.629 21.6753 139.27 21.9606C138.91 22.2459 138.514 22.4976 138.081 22.7158C137.648 22.9339 137.182 23.1059 136.684 23.2318C136.194 23.3577 135.687 23.4206 135.164 23.4206C134.102 23.4206 133.13 23.2234 132.248 22.829C131.365 22.4262 130.605 21.8725 129.968 21.1676C129.339 20.4543 128.849 19.6152 128.498 18.6503C128.146 17.6853 127.97 16.6364 127.97 15.5035ZM130.789 15.5035C130.789 16.1832 130.887 16.8378 131.083 17.4671C131.288 18.0964 131.578 18.6544 131.954 19.1411C132.338 19.6194 132.807 20.0012 133.363 20.2865C133.918 20.5718 134.547 20.7145 135.25 20.7145C135.944 20.7145 136.573 20.576 137.137 20.2991C137.701 20.0222 138.191 19.6614 138.608 19.2167C139.032 18.7719 139.38 18.2768 139.649 17.7314C139.919 17.1776 140.103 16.6237 140.201 16.07V14.9623C140.111 14.4504 139.94 13.9092 139.686 13.3386C139.441 12.768 139.115 12.2436 138.706 11.7653C138.305 11.2786 137.823 10.88 137.26 10.5695C136.696 10.2506 136.059 10.0912 135.348 10.0912C134.678 10.0912 134.066 10.2339 133.51 10.5192C132.954 10.7961 132.472 11.182 132.064 11.6772C131.664 12.1639 131.349 12.7344 131.12 13.3889C130.899 14.0434 130.789 14.7483 130.789 15.5035ZM148.73 21.9354C148.73 21.6417 148.735 21.348 148.743 21.0543C148.751 20.7606 148.759 20.4376 148.767 20.0851V10.3807C148.767 10.1457 148.743 9.91081 148.693 9.67585C148.644 9.4325 148.62 9.18078 148.62 8.92062C148.62 8.47589 148.775 8.13608 149.085 7.90111C149.396 7.66615 149.817 7.54866 150.348 7.54866C150.577 7.54866 150.777 7.59062 150.948 7.67452C151.12 7.75005 151.263 7.85071 151.378 7.97664C151.492 8.1025 151.578 8.24512 151.635 8.40455C151.692 8.56399 151.721 8.72761 151.721 8.89542C151.721 9.0381 151.708 9.18497 151.684 9.33597C151.667 9.47865 151.647 9.62126 151.622 9.76394C152.873 9.44507 153.934 9.15559 154.809 8.89542C155.691 8.63533 156.381 8.42137 156.88 8.25349C156.986 8.06055 157.133 7.89692 157.321 7.76262C157.517 7.62 157.771 7.54866 158.081 7.54866C158.53 7.54866 158.886 7.67033 159.147 7.91368C159.416 8.14864 159.551 8.4465 159.551 8.80733C159.551 8.95001 159.543 9.09681 159.527 9.24787C159.511 9.39893 159.502 9.54999 159.502 9.70098C159.453 10.2129 159.441 10.7331 159.465 11.2618C159.499 11.7904 159.535 12.3233 159.576 12.8603C159.592 13.0281 159.6 13.2086 159.6 13.4015C159.608 13.5861 159.613 13.775 159.613 13.9679C159.613 14.1693 159.564 14.3372 159.465 14.4714C159.367 14.6057 159.241 14.7148 159.086 14.7987C158.939 14.8742 158.775 14.9287 158.596 14.9623C158.416 14.9959 158.24 15.0126 158.069 15.0126C157.823 15.0126 157.619 14.9707 157.456 14.8868C157.293 14.7945 157.158 14.6812 157.052 14.5469C156.954 14.4043 156.88 14.249 156.831 14.0812C156.79 13.905 156.77 13.733 156.77 13.5651C156.77 13.1792 156.774 12.789 156.782 12.3946C156.79 11.9918 156.798 11.5512 156.806 11.0729C156.496 11.1485 156.067 11.2492 155.519 11.3751C154.98 11.5009 154.388 11.6352 153.742 11.7778C153.375 11.8701 153.011 11.9582 152.652 12.0422C152.292 12.1176 151.929 12.1974 151.561 12.2813V20.5005L151.929 20.3872C152.092 20.3284 152.248 20.2781 152.395 20.2362C152.541 20.1858 152.709 20.1523 152.897 20.1355C153.052 20.1523 153.203 20.19 153.35 20.2487C153.506 20.3075 153.641 20.3914 153.755 20.5005C153.877 20.6096 153.975 20.748 154.049 20.9159C154.123 21.0753 154.159 21.2599 154.159 21.4697C154.159 21.6626 154.126 21.8473 154.061 22.0235C154.004 22.1997 153.922 22.3592 153.816 22.5018C153.71 22.6361 153.583 22.7493 153.436 22.8417C153.298 22.9256 153.142 22.9717 152.971 22.9801C152.856 22.9969 152.701 23.022 152.505 23.0556C152.309 23.0976 152.08 23.1437 151.819 23.194C151.402 23.278 151.063 23.3367 150.802 23.3703C150.548 23.4039 150.336 23.4206 150.164 23.4206C149.976 23.4206 149.793 23.387 149.613 23.32C149.441 23.2612 149.29 23.1689 149.16 23.043C149.028 22.9172 148.922 22.7619 148.841 22.5773C148.767 22.3927 148.73 22.1787 148.73 21.9354Z" fill="black"/>
</g>
<defs>
<clipPath id="clip0_4_39">
<rect width="160" height="29" fill="white" transform="translate(0 0.5)"/>
</clipPath>
</defs>
</svg>
